<?xml version="1.0" encoding="UTF-8" standalone="no"?>
<!-- Generator: Fusion 360, Shaper Origin Export Add-In, Version 1.8.0  -->

<svg
   shaper:fusionaddin="version:1.8.0"
   width="20cm"
   height="30cm"
   version="1.1"
   x="0cm"
   y="0cm"
   viewBox="0 0 20 30"
   enable-background="new 0 0 30 20"
   xml:space="preserve"
   id="svg8"
   sodipodi:docname="Route_Faces_v2.svg"
   inkscape:version="1.3.2 (091e20e, 2023-11-25, custom)"
   xmlns:inkscape="http://www.inkscape.org/namespaces/inkscape"
   xmlns:sodipodi="http://sodipodi.sourceforge.net/DTD/sodipodi-0.dtd"
   xmlns="http://www.w3.org/2000/svg"
   xmlns:svg="http://www.w3.org/2000/svg"
   xmlns:shaper="http://www.shapertools.com/namespaces/shaper"><defs
     id="defs8" /><sodipodi:namedview
     id="namedview8"
     pagecolor="#ffffff"
     bordercolor="#666666"
     borderopacity="1.0"
     inkscape:showpageshadow="2"
     inkscape:pageopacity="0.0"
     inkscape:pagecheckerboard="0"
     inkscape:deskcolor="#d1d1d1"
     inkscape:document-units="cm"
     inkscape:zoom="0.44527104"
     inkscape:cx="-180.78876"
     inkscape:cy="722.03214"
     inkscape:window-width="2560"
     inkscape:window-height="1377"
     inkscape:window-x="-8"
     inkscape:window-y="-8"
     inkscape:window-maximized="1"
     inkscape:current-layer="svg8" /><g
     id="g8"
     transform="rotate(90,10,10)"><path
       d="M 15,10 H -15 V -10 H 15 Z"
       transform="matrix(1,0,0,-1,15,10)"
       fill="#000000"
       stroke-linecap="round"
       stroke-linejoin="round"
       id="path1" /><path
       d="m -4.5099922,-3 v 0.29 h 1 V -3 Z"
       transform="matrix(1,0,0,-1,15,10)"
       fill="#ffffff"
       stroke="#000000"
       stroke-width="0.001cm"
       stroke-linecap="round"
       stroke-linejoin="round"
       id="path2" /><path
       d="m -6.5099922,-3 v 0.29 h 1 V -3 Z"
       transform="matrix(1,0,0,-1,15,10)"
       fill="#ffffff"
       stroke="#000000"
       stroke-width="0.001cm"
       stroke-linecap="round"
       stroke-linejoin="round"
       id="path3" /><path
       d="M 3,-6 H 2.71 v 1 H 3 Z"
       transform="matrix(1,0,0,-1,15,10)"
       fill="#ffffff"
       stroke="#000000"
       stroke-width="0.001cm"
       stroke-linecap="round"
       stroke-linejoin="round"
       id="path4" /><path
       d="M 3,-3 H 2.71 v 1 H 3 Z"
       transform="matrix(1,0,0,-1,15,10)"
       fill="#ffffff"
       stroke="#000000"
       stroke-width="0.001cm"
       stroke-linecap="round"
       stroke-linejoin="round"
       id="path5" /><path
       d="m 8.1727166,-6.6158701 a 0.2,0.2 0 1 1 0.4,0 0.2,0.2 0 1 1 -0.4,0 z"
       transform="matrix(1,0,0,-1,15,10)"
       fill="#ffffff"
       stroke="#000000"
       stroke-width="0.001cm"
       stroke-linecap="round"
       stroke-linejoin="round"
       id="path6" /><path
       d="m 8.1713486,-3.8099307 a 0.2,0.2 0 1 1 0.4,0 0.2,0.2 0 1 1 -0.4,0 z"
       transform="matrix(1,0,0,-1,15,10)"
       fill="#ffffff"
       stroke="#000000"
       stroke-width="0.001cm"
       stroke-linecap="round"
       stroke-linejoin="round"
       id="path7" /><path
       d="m 13.25,-8.1300001 a 0.2,0.2 0 1 1 0.4,0 0.2,0.2 0 1 1 -0.4,0 z"
       transform="matrix(1,0,0,-1,15,10)"
       fill="#ffffff"
       stroke="#000000"
       stroke-width="0.001cm"
       stroke-linecap="round"
       stroke-linejoin="round"
       id="path8" /></g><g
     id="g2"><rect
       style="opacity:0.99;fill:#ffffff;stroke:#000000;stroke-width:0.00526254"
       id="rect8-7"
       width="0.49473745"
       height="5.9947376"
       x="9.0026321"
       y="24.00263" /><rect
       style="opacity:0.99;fill:#ffffff;stroke:#000000;stroke-width:0.00526254"
       id="rect8-7-8"
       width="0.49473745"
       height="5.9947376"
       x="9.0026321"
       y="12.00263" /><rect
       style="opacity:0.99;fill:#ffffff;stroke:#000000;stroke-width:0.00526254"
       id="rect8-7-8-5"
       width="0.49473745"
       height="5.9947376"
       x="9.0026321"
       y="0.0026302338" /><g
       id="g9"
       transform="translate(-1.056188)"><rect
         style="opacity:0.99;fill:#ffffff;stroke:#000000;stroke-width:0.00372627"
         id="rect8"
         width="0.49627373"
         height="2.9962735"
         x="15.058051"
         y="27.001863" /><rect
         style="opacity:0.99;fill:#ffffff;stroke:#000000;stroke-width:0.00372627"
         id="rect8-2"
         width="0.49627373"
         height="2.9962735"
         x="15.058051"
         y="21.001863" /><rect
         style="opacity:0.99;fill:#ffffff;stroke:#000000;stroke-width:0.00372627"
         id="rect8-2-0"
         width="0.49627373"
         height="2.9962735"
         x="15.058051"
         y="15.001863" /><rect
         style="opacity:0.99;fill:#ffffff;stroke:#000000;stroke-width:0.00372627"
         id="rect8-2-0-1"
         width="0.49627373"
         height="2.9962735"
         x="15.058051"
         y="9.0018625" /><rect
         style="opacity:0.99;fill:#ffffff;stroke:#000000;stroke-width:0.00372627"
         id="rect8-2-0-1-0"
         width="0.49627373"
         height="2.9962735"
         x="15.058051"
         y="3.0018625" /></g></g></svg>
