<?xml version="1.0" encoding="UTF-8" standalone="no"?>
<!-- Generator: Fusion 360, Shaper Origin Export Add-In, Version 1.8.0  -->

<svg
   shaper:fusionaddin="version:1.8.0"
   width="5cm"
   height="3.5cm"
   version="1.1"
   x="0cm"
   y="0cm"
   viewBox="0 0 5 3.5"
   enable-background="new 0 0 5 3.5"
   xml:space="preserve"
   id="svg4"
   sodipodi:docname="Support HRSC04_Faces_v2.svg"
   inkscape:version="1.3.2 (091e20e, 2023-11-25, custom)"
   xmlns:inkscape="http://www.inkscape.org/namespaces/inkscape"
   xmlns:sodipodi="http://sodipodi.sourceforge.net/DTD/sodipodi-0.dtd"
   xmlns="http://www.w3.org/2000/svg"
   xmlns:svg="http://www.w3.org/2000/svg"
   xmlns:shaper="http://www.shapertools.com/namespaces/shaper"><defs
     id="defs4" /><sodipodi:namedview
     id="namedview4"
     pagecolor="#ffffff"
     bordercolor="#666666"
     borderopacity="1.0"
     inkscape:showpageshadow="2"
     inkscape:pageopacity="0.0"
     inkscape:pagecheckerboard="0"
     inkscape:deskcolor="#d1d1d1"
     inkscape:document-units="cm"
     inkscape:zoom="5.6568542"
     inkscape:cx="120.73848"
     inkscape:cy="67.440309"
     inkscape:window-width="2560"
     inkscape:window-height="1377"
     inkscape:window-x="-8"
     inkscape:window-y="-8"
     inkscape:window-maximized="1"
     inkscape:current-layer="svg4" /><path
     d="M1.5,-1.75 L1.5,-1.45 2.5,-1.45 2.5,1.75 -2.5,1.75 -2.5,-1.4881402 -1.5,-1.4881402 -1.5,-1.75 -0.5,-1.75 -0.5,-1.45 0.5,-1.45 0.5,-1.75 1.5,-1.75z"
     transform="matrix(1,0,0,-1,2.5,1.75)"
     fill="rgb(0,0,0)"
     stroke-linecap="round"
     stroke-linejoin="round"
     id="path1" /><path
     d="M 3.016978,1.7951813 V 2.2531716 H 1.9225944 V 1.7951813 Z"
     fill="#ffffff"
     stroke="#000000"
     stroke-width="0.001cm"
     stroke-linecap="round"
     stroke-linejoin="round"
     id="path2" /><path
     d="M0.4400077,0.4618598 a0.85,0.85 0 1,1 1.7,0 a0.85,0.85 0 1,1 -1.7,0z"
     transform="matrix(1,0,0,-1,2.5,1.75)"
     fill="rgb(255,255,255)"
     stroke="rgb(0,0,0)"
     stroke-width="0.0010cm"
     stroke-linecap="round"
     stroke-linejoin="round"
     id="path3" /><path
     d="M-2.1599923,0.4618598 a0.85,0.85 0 1,1 1.7,0 a0.85,0.85 0 1,1 -1.7,0z"
     transform="matrix(1,0,0,-1,2.5,1.75)"
     fill="rgb(255,255,255)"
     stroke="rgb(0,0,0)"
     stroke-width="0.0010cm"
     stroke-linecap="round"
     stroke-linejoin="round"
     id="path4" /></svg>
