<?xml version="1.0" encoding="utf-8"?>
<!-- Generator: Fusion 360, Shaper Origin Export Add-In, Version 1.8.0  -->
<svg xmlns="http://www.w3.org/2000/svg" xmlns:xlink="http://www.w3.org/1999/xlink" xmlns:shaper="http://www.shapertools.com/namespaces/shaper" shaper:fusionaddin="version:1.8.0" width="6.0000001cm" height="6cm" version="1.1" x="0cm" y="0cm" viewBox="0 0 6.0000001 6" enable-background="new 0 0 6.0000001 6" xml:space="preserve"><path d="M1.9999999,2.7 L1.9999999,3 0.9999999,3 0.9999999,2.7 -0.0000001,2.7 -1.0000001,2.7 -1.0000001,3 -2.0000001,3 -2.0000001,2.7 -3,2.7 -3.0000001,-3 2.9999999,-3 3.0000001,2.7 1.9999999,2.7z" transform="matrix(1,0,0,-1,3.0000001,3)" fill="rgb(0,0,0)" stroke-linecap="round" stroke-linejoin="round" /><path d="M-1.2600001,-2 a0.26,0.26 0 1,1 0.52,0 a0.26,0.26 0 1,1 -0.52,0z" transform="matrix(1,0,0,-1,3.0000001,3)" fill="rgb(255,255,255)" stroke="rgb(0,0,0)" stroke-width="0.0010cm" stroke-linecap="round" stroke-linejoin="round" /><path d="M-2.2600001,-2 a0.26,0.26 0 1,1 0.52,0 a0.26,0.26 0 1,1 -0.52,0z" transform="matrix(1,0,0,-1,3.0000001,3)" fill="rgb(255,255,255)" stroke="rgb(0,0,0)" stroke-width="0.0010cm" stroke-linecap="round" stroke-linejoin="round" /><path d="M2.2720518,-0.4774237 a0.1794622,0.1794622 0 1,1 0.3589244,0 a0.1794622,0.1794622 0 1,1 -0.3589244,0z" transform="matrix(1,0,0,-1,3.0000001,3)" fill="rgb(255,255,255)" stroke="rgb(0,0,0)" stroke-width="0.0010cm" stroke-linecap="round" stroke-linejoin="round" /><path d="M-2.5335831,0.3684558 a0.1856516,0.1856516 0 1,1 0.3713033,0 a0.1856516,0.1856516 0 1,1 -0.3713033,0z" transform="matrix(1,0,0,-1,3.0000001,3)" fill="rgb(255,255,255)" stroke="rgb(0,0,0)" stroke-width="0.0010cm" stroke-linecap="round" stroke-linejoin="round" /><path d="M-1.6601522,-0.0528328 a0.6913791,0.6913791 0 1,1 1.3827583,0 a0.6913791,0.6913791 0 1,1 -1.3827583,0z" transform="matrix(1,0,0,-1,3.0000001,3)" fill="rgb(255,255,255)" stroke="rgb(0,0,0)" stroke-width="0.0010cm" stroke-linecap="round" stroke-linejoin="round" /></svg>